# xmcd
#
# Track frame offsets:
# 150
# 13914
# 32758
# 48600
# 66443
# 83567
# 104090
# 115934
# 132298
# 150382
# 166945
# 186028
# 200991
# 219835
# 236598
#
# Disc length: 3364 seconds
#
#
# Revision: 2
# Processed by: cddbd v1.5.1PL0 Copyright (c) Steve Scherf et al.
# Submitted via: FreeRIP 2.90 
#
DISCID=d20d220f
DTITLE=Bruno e Marrone - Sonhos, Planos, Fantasias
DYEAR=1900
DGENRE=
TTITLE0=Credo em Cruz Ave-Maria
TTITLE1=Agora Vai
TTITLE2=Anjo de Amor
TTITLE3=Eu Queria
TTITLE4=Então Pode Ir
TTITLE5=Se Tiver Coragem Joga Fora
TTITLE6=Tá Liberado
TTITLE7=Menina
TTITLE8=Raio de Luar
TTITLE9=Cama Vazia
TTITLE10=Remar Contra a Maré
TTITLE11=Telefone Mudo
TTITLE12=Noite sem Sono
TTITLE13=Metade da Metade
TTITLE14=Ligação Urbana
EXTD=Incluindo o Sucesso Ligação Urbana
EXTT0=
EXTT1=
EXTT2=
EXTT3=
EXTT4=
EXTT5=
EXTT6=
EXTT7=
EXTT8=
EXTT9=
EXTT10=
EXTT11=
EXTT12=
EXTT13=Participação especial de Ana Paula
EXTT14=
PLAYORDER=
